<svg xmlns="http://www.w3.org/2000/svg" width="64" height="64" viewBox="0 0 64 64" fill="none">
  <defs>
    <linearGradient id="bg" x1="8" y1="6" x2="56" y2="58" gradientUnits="userSpaceOnUse">
      <stop offset="0" stop-color="#0A1020"/>
      <stop offset="1" stop-color="#132846"/>
    </linearGradient>
    <linearGradient id="accent" x1="17" y1="18" x2="48" y2="47" gradientUnits="userSpaceOnUse">
      <stop offset="0" stop-color="#00E5FF"/>
      <stop offset="1" stop-color="#00FF88"/>
    </linearGradient>
  </defs>

  <rect x="3" y="3" width="58" height="58" rx="16" fill="url(#bg)"/>
  <rect x="3.5" y="3.5" width="57" height="57" rx="15.5" stroke="#1EEB96" stroke-opacity="0.65"/>

  <path d="M20 45V19h9.5c7.6 0 12.4 4.2 12.4 10.7 0 6.6-4.8 10.8-12.4 10.8h-4.7V45H20zm4.8-9h4.3c4.4 0 7-2.3 7-6.3 0-3.9-2.6-6.2-7-6.2h-4.3V36z" fill="url(#accent)"/>
  <path d="M36.6 45l-8.3-9.2h6.8l6.8 9.2h-5.3z" fill="url(#accent)"/>
</svg>
